<svg id="Layer_1" data-name="Layer 1" xmlns="http://www.w3.org/2000/svg" viewBox="0 0 241.66 154.94"><path d="M231.61,203H103.45a3.45,3.45,0,0,1-2.1-.71l-96.65-74a3.47,3.47,0,0,1,0-5.51l96.65-74a3.4,3.4,0,0,1,2.1-.72H231.61A13.41,13.41,0,0,1,245,61.45V189.61A13.41,13.41,0,0,1,231.61,203Zm-127-6.94h127a6.45,6.45,0,0,0,6.45-6.45V61.45A6.46,6.46,0,0,0,231.61,55h-127L12.52,125.53Z" transform="translate(-3.34 -48.06)"/><path d="M223,179.87a3.43,3.43,0,0,1-2.45-1L115.36,73.64a3.47,3.47,0,0,1,4.9-4.91L225.48,174a3.46,3.46,0,0,1,0,4.91A3.42,3.42,0,0,1,223,179.87Z" transform="translate(-3.34 -48.06)"/><path d="M117.81,179.87a3.47,3.47,0,0,1-2.45-5.92L220.58,68.73a3.47,3.47,0,0,1,4.9,4.91L120.26,178.86A3.42,3.42,0,0,1,117.81,179.87Z" transform="translate(-3.34 -48.06)"/></svg>