<svg id="Layer_1" data-name="Layer 1" xmlns="http://www.w3.org/2000/svg" viewBox="0 0 142.66 204.48"><path d="M187.52,47.27a2.81,2.81,0,0,1,2.81,2.8v9.52a2.81,2.81,0,0,1-2.81,2.81h-125a2.81,2.81,0,0,1-2.81-2.81V50.07a2.81,2.81,0,0,1,2.81-2.8h125m0-6h-125a8.81,8.81,0,0,0-8.81,8.8v9.52a8.81,8.81,0,0,0,8.81,8.81h125a8.81,8.81,0,0,0,8.81-8.81V50.07a8.81,8.81,0,0,0-8.81-8.8Z" transform="translate(-53.67 -22.76)"/><path d="M148.26,45.64a3,3,0,0,1-3-3v-10a3.84,3.84,0,0,0-3.83-3.83H108.57a3.84,3.84,0,0,0-3.83,3.83v10a3,3,0,0,1-6,0v-10a9.84,9.84,0,0,1,9.83-9.83h32.86a9.84,9.84,0,0,1,9.83,9.83v10A3,3,0,0,1,148.26,45.64Z" transform="translate(-53.67 -22.76)"/><path d="M179.67,227.24H70.33a9.72,9.72,0,0,1-9.58-9.83V66.1a3,3,0,0,1,6,0V217.41a3.72,3.72,0,0,0,3.58,3.83H179.67a3.72,3.72,0,0,0,3.58-3.83V66a3,3,0,1,1,6,0V217.41A9.72,9.72,0,0,1,179.67,227.24Z" transform="translate(-53.67 -22.76)"/><path d="M94,204a3,3,0,0,1-3-3V87.79a3,3,0,0,1,6,0V201A3,3,0,0,1,94,204Z" transform="translate(-53.67 -22.76)"/><path d="M125,204a3,3,0,0,1-3-3V87.79a3,3,0,0,1,6,0V201A3,3,0,0,1,125,204Z" transform="translate(-53.67 -22.76)"/><path d="M156,204a3,3,0,0,1-3-3V87.79a3,3,0,0,1,6,0V201A3,3,0,0,1,156,204Z" transform="translate(-53.67 -22.76)"/></svg>